<svg xmlns="http://www.w3.org/2000/svg" viewBox="0 0 192.78 123.29"><g id="katman_2" data-name="katman 2"><g id="katman_1-2" data-name="katman 1"><path d="M3.89,55.5C4,57,6.18,56.83,7.51,56.23L15,52.86a6.39,6.39,0,0,1,2.43-.73,7,7,0,0,1,2.25.47c14.07,4.57,29.3,3,44,1.43A11.61,11.61,0,0,0,68,53a5.86,5.86,0,0,0,2.86-4.54A5.54,5.54,0,0,0,70,44.64c-1.81-2.63-5.36-3.29-8.53-3.72l-12.8-1.75a3.1,3.1,0,0,1-2.45-1.69c-.64-1.41.33-2.48,1.23-3.36,2.95-2.91,5.95-5.86,9.63-7.76,7-3.63,15.38-3,23.24-2.2l22.33,2.16c2.56.25,5.4.43,7.13-2.08a5.33,5.33,0,0,0,.76-4.08c-.7-3.45-3.74-5.53-6.9-6.51-2.58-.81-3.3-4-6-4.48A5.35,5.35,0,0,0,96.92.82C95.18-.17,93.06,0,91.07.1c-6.95.5-15.9,4-22.85,4.51a29.64,29.64,0,0,1-8.31-.18C58,4,56.15,3.23,54.21,2.88a9.79,9.79,0,0,0-1.43-.17,4.34,4.34,0,0,0-1.44.09c-.88.27-1.78.48-2.66.73a56.44,56.44,0,0,0-5.39,1.9c-1.77.72-3.5,1.52-5.21,2.37S34.68,9.58,33,10.53s-3.34,2-5,3-3.3,2-4.95,3-3.29,2-4.95,3l-1,.6a7.39,7.39,0,0,0-3.27,4l-3.57,10.3" fill="#feafb4" opacity="0.95"/><path d="M190.19,94.28l-12.13,4.37a105.25,105.25,0,0,0-16.81,8.6,112,112,0,0,1-26.38,12.24,8.11,8.11,0,0,1-4.45-.17A195.39,195.39,0,0,0,101,111.21,176.91,176.91,0,0,1,80.41,106l-.12,0h0a2.3,2.3,0,0,1-1.79-1.49,4.92,4.92,0,0,1,.52-3.86,1.22,1.22,0,0,1,.91-.48c7.14.63,12.62,1.41,17.48,2.08h0a148.71,148.71,0,0,0,23.18,2,17.7,17.7,0,0,0,6-.76,1.49,1.49,0,0,0,.55-.1l.27-.1A22.66,22.66,0,0,0,134,99.71l8.48-7.19a3.28,3.28,0,0,0,1.07-3.32c-.34-2.07-2.09-4.68-4.13-5.26l-.09,0-19-3.79c-.56-.2-1.45-1.64-1.32-3.41h0a2.61,2.61,0,0,1,2.49-2.61l25.4-.66a24,24,0,0,1,5.8.32c4.18.7,11.75,2.21,15.49,4.45l.65.4L182,73.47h0a1.52,1.52,0,0,0,.87-2,1.55,1.55,0,0,0-2-.88L169,75.21c-4.06-2.16-10.81-3.62-15.89-4.48a27.52,27.52,0,0,0-6.41-.36L121.1,71a5.69,5.69,0,0,0-5.23,5.45c-.19,2.63,1.19,5.88,3.65,6.57l.11,0,19,3.82a3.71,3.71,0,0,1,1.49,1.69,2.89,2.89,0,0,1,.41,1.52L132,97.17a19.46,19.46,0,0,1-5.83,3c-11.92-.93-16.67-2.37-26.87-5.46-1.81-.54-3.74-1.15-6-1.78-3-.9-8.47-.14-10.74,4.27L81,97.1a5.42,5.42,0,0,0-2.19.23,4.2,4.2,0,0,0-2.21,1.43,7.87,7.87,0,0,0-1,6.73A5.28,5.28,0,0,0,79.49,109a176.8,176.8,0,0,0,20.88,5.29,194.87,194.87,0,0,1,29,8,11.27,11.27,0,0,0,6.33.2c2.93-.94,5.53-1.88,7.91-2.8h0a119.06,119.06,0,0,0,19.2-9.76,102.43,102.43,0,0,1,16.31-8.37l12.09-4.34a1.54,1.54,0,0,0,.87-.79,1.47,1.47,0,0,0,.05-1.18,1.51,1.51,0,0,0-.8-.88,1.54,1.54,0,0,0-1.19,0ZM92.45,95.92c2.15.66,4.14,1.24,5.89,1.8,3.48,1.06,6.36,1.92,9.18,2.66-3.28-.33-6.43-.8-9.75-1.24s-7.29-1-11.78-1.51h0a6.73,6.73,0,0,1,6.45-1.71Z" fill="#999" stroke="#999" stroke-miterlimit="10"/><path d="M108.6,49.43a7.58,7.58,0,1,0-4.32,9.8,7.57,7.57,0,0,0,4.32-9.8ZM97.34,53.8a4.51,4.51,0,1,1,5.87,2.53,4.5,4.5,0,0,1-5.87-2.53Z" fill="red"/><path d="M85.74,79.44A10.23,10.23,0,1,0,91.57,66.2a10.22,10.22,0,0,0-5.83,13.24Z" fill="red"/><path d="M83.49,45.33a1,1,0,0,0-.51-.54,1,1,0,0,0-.76,0,1,1,0,0,0-.54.52,1,1,0,0,0,0,.75l5.84,15a.92.92,0,0,0,.52.54.89.89,0,0,0,.39.09,1,1,0,0,0,.36-.07,1,1,0,0,0,.54-.52,1,1,0,0,0,0-.75Z" fill="red"/><path d="M93.69,31.86h0a1,1,0,0,0-1.27-.49,1,1,0,0,0-.59,1.21l2.9,7.47.1.18a1,1,0,0,0,.78.39.92.92,0,0,0,.36-.07,1,1,0,0,0,.63-1Z" fill="red"/><path d="M77,49.36a5.63,5.63,0,0,0-.74-3.81C74.56,42.84,71,42,67.9,41.48l-11.37-2c-1.77-.31-4-1.17-3.9-3a3.74,3.74,0,0,1,1.53-2.37c3.06-2.79,6.19-5.62,9.94-7.37,7.15-3.34,15.48-2.33,23.3-1.25l22.23,3.06c1.94.27,4,.51,5.74-.46,2.34-1.34,3-4.69,1.86-7.15a10.24,10.24,0,0,0-6.09-5,65.82,65.82,0,0,0-7.89-1.8,5.35,5.35,0,0,0-.43-8.37c-1.69-1-3.82-1-5.81-1l-20.9.67A29.85,29.85,0,0,1,67.82,5c-1.91-.5-3.71-1.35-5.63-1.79A11.48,11.48,0,0,0,60.76,3a4.35,4.35,0,0,0-1.44,0c-.88.24-1.8.4-2.69.63a54.58,54.58,0,0,0-5.46,1.67c-1.8.65-3.56,1.38-5.3,2.16S42.4,9.08,40.7,10s-3.41,1.81-5.1,2.75l-5.06,2.84Q28,17,25.46,18.36c-1.14.62-2.29,1.23-3.45,1.81A123.63,123.63,0,0,1,2.57,28.05C1.6,28.35.4,28.94.51,30c.13,1.28,2,1.31,3.23.93a119.92,119.92,0,0,0,19.83-8C33.29,17.9,42.39,11.57,52.71,8A20.59,20.59,0,0,1,58.54,6.7a24.52,24.52,0,0,1,6.83,1.07L109.47,19c1.67.42,3.47.93,4.54,2.28s.82,3.81-.84,4.3a3.87,3.87,0,0,1-1.4.06c-11.53-.87-22.89-3.46-34.44-4A33,33,0,0,0,65,23c-4.48,1.56-8.23,4.66-11.88,7.69-1.67,1.38-3.45,3-3.71,5.11s1.19,4.26,3.06,5.4a17.39,17.39,0,0,0,6.24,1.87l9.61,1.58A9.1,9.1,0,0,1,72.7,46.2c1.2,1,1.77,2.92.78,4.12-.76.92-2.09,1.08-3.28,1.17C55.33,52.62,39.85,53.67,26,48.21a6.79,6.79,0,0,0-2.43-.64,6.5,6.5,0,0,0-2.22.57l-9.71,3.78c-.85.33-1.86.87-1.84,1.79,0,1.46,2.23,1.42,3.58.87l7.57-3.06a6.49,6.49,0,0,1,2.47-.63,6.91,6.91,0,0,1,2.22.56c13.88,5.13,29.16,4.21,43.92,3.22A11.78,11.78,0,0,0,74,53.78,5.91,5.91,0,0,0,77,49.36Z" fill="#999" stroke="#999" stroke-miterlimit="10"/><path d="M101,12a8,8,0,0,1-.9.4l-.79.3a2.22,2.22,0,0,1-.61.17,2.46,2.46,0,0,1-.66-.06c-.73-.21-1.51-.3-2.26-.46s-1.53-.31-2.29-.48c-1.54-.32-3.07-.65-4.59-1-3.06-.69-6.1-1.42-9.14-2.19A2.37,2.37,0,0,1,79,8.41a3.72,3.72,0,0,1,1.11,0h1.19l2.37,0c1.59,0,3.17-.05,4.75-.09,3.16-.07,6.33-.16,9.49-.28l.76,0c1.13,0,2.44,0,3.15.87a2.16,2.16,0,0,1-.48,2.94A2.92,2.92,0,0,1,101,12Z" fill="#fff"/><path d="M95.6,75.13l-.81-3.22a3.52,3.52,0,0,1,1.86.34.48.48,0,0,0,.46-.84A4.37,4.37,0,0,0,94.55,71l-.22-.85a.48.48,0,0,0-.94.23l.21.85a2.84,2.84,0,0,0-2.07,3.3c.39,1.55,2.29,1.6,3.3,1.6l.9,3.57a5.86,5.86,0,0,1-2.38-.42h0a.46.46,0,0,0-.65.16.48.48,0,0,0,.16.66A6.32,6.32,0,0,0,96,80.6l.2.77a.48.48,0,0,0,.58.36.5.5,0,0,0,.36-.59l-.19-.77c1.16-.44,2.51-1.53,2.11-3.13-.27-1.25-1.52-2-3.42-2.11Zm-1,0c-.81,0-1.92-.12-2.11-.88a1.88,1.88,0,0,1,1.36-2.11l.75,3Zm2.09,4.34-.83-3.34c.92.1,2,.43,2.24,1.39s-.78,1.65-1.41,1.93Z" fill="#fff"/><path d="M101.7,51.85l-.42-1.64a1.81,1.81,0,0,1,1,.17.25.25,0,1,0,.24-.43,2.2,2.2,0,0,0-1.31-.23l-.11-.44a.25.25,0,0,0-.3-.18.26.26,0,0,0-.18.3l.11.43a1.45,1.45,0,0,0-1.06,1.69c.2.79,1.17.82,1.69.82l.45,1.82a2.94,2.94,0,0,1-1.21-.22h0a.24.24,0,0,0-.33.09.24.24,0,0,0,.08.33,3.08,3.08,0,0,0,1.59.28l.1.4a.25.25,0,0,0,.48-.12l-.1-.39a1.43,1.43,0,0,0,1.08-1.6c-.13-.64-.77-1-1.74-1.08Zm-.52,0c-.41,0-1-.06-1.07-.44a1,1,0,0,1,.69-1.08l.38,1.52Zm1.07,2.22-.43-1.7c.47,0,1,.22,1.15.71s-.4.84-.72,1Z" fill="red"/></g></g></svg>