<svg xmlns="http://www.w3.org/2000/svg" viewBox="0 0 280.441 280.401"><g id="katman_2" data-name="katman 2"><g id="katman_1-2" data-name="katman 1"><rect x="0.2" y="0.2" width="280.041" height="280" transform="translate(0.201 -0.201) rotate(0.082)" fill="none"/><path d="M130.455,263.947a5.136,5.136,0,0,1-2.571-.69L28.035,205.482a5.108,5.108,0,0,1-2.551-4.43l.11-115.362a5.1,5.1,0,0,1,2.571-4.431l99.949-57.595a5.12,5.12,0,0,1,5.121.01L233.1,81.448a5.136,5.136,0,0,1,2.55,4.441l-.11,115.362a5.106,5.106,0,0,1-2.57,4.431l-99.95,57.585a5.164,5.164,0,0,1-2.56.68Z" fill="#e93323" opacity="0.11"/><path d="M15.819,151.792a3.682,3.682,0,0,0-.274,1.373l-.324,85.947a3.486,3.486,0,0,0,.269,1.373,3.691,3.691,0,0,0,.786,1.187,3.529,3.529,0,0,0,1.153.778,3.655,3.655,0,0,0,1.375.276l31.291.11a3.514,3.514,0,0,0,1.4-.277,3.709,3.709,0,0,0,1.165-.777,3.664,3.664,0,0,0,.78-1.158,3.8,3.8,0,0,0,.273-1.37l.04-9.225,1.659-.29c23.527-4.113,41.626-1.311,59.129,1.4,11.29,1.749,22.966,3.558,36.236,3.59,6.8.019,14.352-3.592,22.836-7.956,8.286-4.27,18.283-10.169,30.562-18.036,14.809-9.5,29.658-19.758,41.59-28,5.014-3.465,9.384-6.484,12.875-8.84v0l.619-.423a13.462,13.462,0,0,0,5.867-9.416,14.857,14.857,0,0,0-2.583-10.1,15.438,15.438,0,0,0-7.353-5.648l-1.018-.313a18.928,18.928,0,0,0-13.658,1.224l-56.249,26.825-.813-1.955a14.407,14.407,0,0,0-13.643-8.678l-31.074.83c-7.51-.038-13.255-1.729-19.908-3.688l-1.356-.4c-7.529-2.207-15.837-4.364-27.283-4.406h-.177c-8.688,0-21.435,2.477-33.334,6.482l-2.668.9.049-9.81a3.561,3.561,0,0,0-.269-1.372,3.612,3.612,0,0,0-.776-1.177,3.574,3.574,0,0,0-1.165-.789,3.662,3.662,0,0,0-1.382-.274l-31.3-.117h-.031a3.5,3.5,0,0,0-1.343.269,3.73,3.73,0,0,0-1.187.786A3.572,3.572,0,0,0,15.819,151.792Zm6.92,5.021,24.125.08-.1,20.479a3.57,3.57,0,0,0,1.012,2.585,3.673,3.673,0,0,0,1.171.8,3.546,3.546,0,0,0,1.4.292,3.667,3.667,0,0,0,1.375-.276,3.73,3.73,0,0,0,1.183-.8,3.5,3.5,0,0,0,.773-1.162,3.713,3.713,0,0,0,.271-1.406l.035-6.56,1.311-.481c9.773-3.587,25.788-7.433,34.741-7.433h.137c10.548.035,17.7,1.882,25.3,4.11l1.441.424c6.523,1.926,13.267,3.917,21.831,3.947l.114,0,31.159-.826a7.217,7.217,0,0,1,5.293,2.039,6.41,6.41,0,0,1,2.006,4.527c-.029,3.43-3.053,6.143-7.113,6.478l-.3.156-.474-.112-59.023,2.34a3.56,3.56,0,0,0-1.4.314,3.643,3.643,0,0,0-1.154.832,3.549,3.549,0,0,0-.741,1.192,3.576,3.576,0,0,0,.938,3.914,3.506,3.506,0,0,0,1.194.718,3.674,3.674,0,0,0,1.415.207l59.317-2.366a15.467,15.467,0,0,0,13.043-7.812l.312-.59,60.277-28.753c3.194-1.514,5.884-1.939,8.226-1.3l.632.173.043.055a8.577,8.577,0,0,1,4.1,3.4A7.983,7.983,0,0,1,258,161.2a5.38,5.38,0,0,1-2.11,3.857l-.012.045-.617.423c-3.684,2.477-8.314,5.677-13.675,9.381-11.881,8.209-26.666,18.425-41.285,27.8-11.911,7.637-21.993,13.589-29.966,17.694-9.039,4.654-16.789,7.159-19.51,7.159h-.016c-11.973-.03-22.681-1.706-34.017-3.481-17.869-2.8-36.345-5.688-60.64-1.739l-2.349.382.045-7.532a3.581,3.581,0,0,0-1.012-2.583,3.706,3.706,0,0,0-1.171-.8,3.558,3.558,0,0,0-1.4-.291,3.6,3.6,0,0,0-2.559,1.072,3.478,3.478,0,0,0-.773,1.162,3.719,3.719,0,0,0-.272,1.407l-.1,20.5-24.109-.077Z" fill="#e93323" fill-rule="evenodd"/><path d="M196.947,49.009c0-.036-.008-.072-.01-.108,0-.082-.012-.161-.024-.242s-.022-.154-.039-.231a2.871,2.871,0,0,0-1.277-1.839L143.154,16.85a2.692,2.692,0,0,0-2.811,0L87.9,46.589a2.861,2.861,0,0,0-1.286,1.91,2.747,2.747,0,0,0-.054.424c0,.033-.012.061-.012.095s.014.078.016.121a2.39,2.39,0,0,0,.049.383c.009.055.031.1.044.155V111.2l53.794,31.354a2.006,2.006,0,0,0,1.352.275h0v0a1.805,1.805,0,0,0,.451-.064,2.394,2.394,0,0,0,1.465-.8L196.948,111.2V49.02h0Zm-5.405,59.223-49.5,28.545L92.064,107.956V53.994L124.19,73.647a2.061,2.061,0,0,0,1.352.549v0a2.83,2.83,0,0,0,2.429-1.352,2.726,2.726,0,0,0-1.077-3.781L94.921,49.293l36.91-21.126,9.917-5.614,9.918,5.614,36.91,21.126L141.32,76.639a2.712,2.712,0,0,0-2.11,1.919,2.572,2.572,0,0,0-.111,1.708v39.3a2.707,2.707,0,0,0,2.7,2.7,2.55,2.55,0,0,0,2.7-2.7V80.942l47.036-27.154Z" fill="#e93323" stroke="#e93323" stroke-miterlimit="10" stroke-width="1.341"/></g></g></svg>